<svg width="220" height="48" viewBox="0 0 220 48" fill="none" xmlns="http://www.w3.org/2000/svg">
<path d="M36.4642 20.9545C36.5048 21.1349 36.5232 21.3196 36.5192 21.5045C36.5445 22.3156 36.2923 23.1111 35.8042 23.7594C35.4031 24.2621 34.8698 24.643 34.2642 24.8594C33.6042 25.1344 32.8893 25.3544 32.1742 25.5744C31.7353 25.7116 31.3101 25.8487 30.8849 25.9859L30.8787 25.9879C30.4535 26.1251 30.0282 26.2622 29.5893 26.3994C29.3143 26.5094 29.3143 26.5644 29.4243 26.7843C30.2493 28.0493 31.1293 29.3143 32.0643 30.5243C32.3744 30.9059 32.5826 31.3601 32.6692 31.8442C32.816 32.442 32.7906 33.0691 32.5959 33.6531C32.4013 34.237 32.0453 34.754 31.5693 35.1442C31.1599 35.5221 30.6714 35.8039 30.1393 35.9691C29.494 36.1742 28.8017 36.1788 28.1536 35.9825C27.5056 35.7861 26.9323 35.3979 26.5094 34.8692C25.7394 33.8242 24.9694 32.8342 24.1994 31.8442C24.1886 31.8334 24.1782 31.8225 24.1683 31.8116C24.1549 31.7969 24.1423 31.7821 24.1301 31.7674C24.106 31.738 24.084 31.7087 24.062 31.6793C24.0207 31.6243 23.9795 31.5693 23.9244 31.5143C23.8689 31.4434 23.7979 31.386 23.7169 31.3466C23.6873 31.3322 23.6566 31.3203 23.6252 31.311C23.592 31.3012 23.558 31.2943 23.5236 31.2905C23.5124 31.2892 23.5012 31.2882 23.4899 31.2876C23.4789 31.287 23.468 31.2867 23.457 31.2867C23.3669 31.2867 23.278 31.3072 23.197 31.3466C23.116 31.386 23.045 31.4434 22.9895 31.5143C22.8251 31.7024 22.6778 31.9049 22.5495 32.1192C22.192 32.5867 21.8482 33.0542 21.5045 33.5217C21.1607 33.9892 20.817 34.4567 20.4595 34.9242C19.9953 35.532 19.3343 35.9597 18.5896 36.1341C18.1487 36.245 17.6888 36.2582 17.2423 36.1727C16.7958 36.0872 16.3734 35.9051 16.0046 35.6392C15.5652 35.4003 15.1883 35.0611 14.9047 34.6492C14.4631 34.0731 14.2238 33.3675 14.2238 32.6417C14.2238 31.9159 14.4631 31.2103 14.9047 30.6343C15.8321 29.434 16.7046 28.1786 17.577 26.9234L17.5996 26.8943C17.6416 26.8523 17.6516 26.8103 17.6784 26.7683C17.6867 26.7553 17.6966 26.7423 17.7096 26.7294C17.7646 26.6744 17.7646 26.5644 17.6546 26.5093C17.5795 26.4718 17.5557 26.4599 17.5306 26.4561C17.5246 26.4552 17.5184 26.4548 17.5114 26.4546C17.505 26.4544 17.4979 26.4544 17.4896 26.4544C16.8336 26.2357 16.1639 26.017 15.4942 25.7983L15.4791 25.7934C14.8064 25.5737 14.1337 25.3541 13.4747 25.1344C13.1132 25.0213 12.7633 24.8739 12.4297 24.6944C11.9427 24.4463 11.5261 24.0793 11.2184 23.6275C10.9108 23.1757 10.7221 22.6536 10.6698 22.1095C10.5605 21.2844 10.7577 20.448 11.224 19.7587C11.6903 19.0694 12.3933 18.5751 13.1997 18.3695C13.8121 18.2044 14.4573 18.2044 15.0697 18.3695L17.7646 19.0295C18.284 19.1319 18.798 19.2604 19.3046 19.4145H19.6345C19.747 19.3911 19.8475 19.3285 19.9181 19.2378C19.9886 19.1471 20.0245 19.0343 20.0195 18.9195C20.0105 18.7163 20.029 18.5128 20.0745 18.3146C20.0745 17.8471 20.0883 17.3933 20.1021 16.9396C20.1158 16.4858 20.1295 16.0321 20.1295 15.5646C20.1204 15.1422 20.1388 14.7197 20.1845 14.2997C20.2046 13.8572 20.3237 13.4249 20.5331 13.0346C20.7425 12.6443 21.0369 12.306 21.3945 12.0447C22.009 11.5725 22.7645 11.3207 23.5395 11.3297C23.9702 11.3151 24.3995 11.3863 24.8023 11.5394C25.2052 11.6924 25.5735 11.9242 25.8858 12.2212C26.1982 12.5181 26.4482 12.8743 26.6213 13.2689C26.7945 13.6636 26.8873 14.0888 26.8944 14.5196C26.9219 15.097 26.9356 15.6743 26.9493 16.2516C26.9631 16.8293 26.9769 17.4069 27.0044 17.9846C26.9953 18.3155 27.0137 18.6467 27.0594 18.9746C27.0639 19.0584 27.0875 19.14 27.1284 19.2133C27.1693 19.2866 27.2265 19.3495 27.2955 19.3973C27.3645 19.4451 27.4436 19.4764 27.5266 19.489C27.6096 19.5015 27.6943 19.4948 27.7743 19.4695C28.5443 19.3045 29.2593 19.1395 30.0293 18.9195C30.7993 18.6996 31.4593 18.5345 32.2293 18.3695C32.6776 18.2296 33.1506 18.1869 33.6167 18.2443C34.0828 18.3018 34.5313 18.4581 34.9322 18.7028C35.3331 18.9475 35.6771 19.2749 35.9413 19.6632C36.2055 20.0515 36.3837 20.4918 36.4642 20.9545Z" fill="#EA2429"/>
<path fill-rule="evenodd" clip-rule="evenodd" d="M23.6494 0C18.972 0 14.3997 1.38702 10.5105 3.98564C6.6214 6.58429 3.59019 10.2778 1.80021 14.5992C0.010237 18.9206 -0.458078 23.6757 0.454416 28.2632C1.36694 32.8507 3.61933 37.0647 6.92677 40.3721C10.2342 43.6796 14.4481 45.9319 19.0357 46.8445C23.6232 47.757 28.3783 47.2887 32.6997 45.4987C37.0211 43.7087 40.7146 40.6775 43.3133 36.7884C45.9119 32.8992 47.2989 28.3269 47.2989 23.6494C47.2989 17.3772 44.8073 11.3619 40.3722 6.92677C35.937 2.49163 29.9217 0 23.6494 0ZM23.6494 43.174C19.7879 43.174 16.013 42.0289 12.8022 39.8835C9.59141 37.7381 7.0889 34.6888 5.61112 31.1212C4.13336 27.5535 3.74672 23.6278 4.50006 19.8404C5.25344 16.053 7.11297 12.5741 9.84351 9.84351C12.5741 7.11296 16.053 5.25343 19.8404 4.50007C23.6278 3.7467 27.5535 4.13335 31.1212 5.61112C34.6888 7.08889 37.7381 9.59141 39.8835 12.8022C42.0289 16.013 43.174 19.7879 43.174 23.6494C43.1725 28.8272 41.115 33.7925 37.4538 37.4538C33.7925 41.115 28.8272 43.1725 23.6494 43.174Z" fill="#EA2429"/>
<path fill-rule="evenodd" clip-rule="evenodd" d="M65.9435 23.1544C66.5396 23.6157 67.2805 23.8496 68.0334 23.8144C68.8118 23.8178 69.5876 23.7254 70.3434 23.5394V22.6595C69.4634 22.3845 69.0234 21.3395 69.0234 19.4696C69.0828 18.364 68.7943 17.2677 68.1984 16.3346C67.7204 15.6225 67.0264 15.0827 66.2185 14.7947V14.6847C66.8137 14.5888 67.3681 14.3211 67.8134 13.9147C68.304 13.4898 68.6978 12.9646 68.9684 12.3747C69.2269 11.8048 69.3583 11.1855 69.3534 10.5598C69.3982 9.90638 69.2629 9.25324 68.9623 8.67143C68.6617 8.08958 68.2072 7.60135 67.6484 7.25984C66.367 6.56653 64.9248 6.22497 63.4685 6.26985H55.6587V23.6494H59.5086V16.3896H62.4235C62.8624 16.3441 63.3045 16.4361 63.6888 16.6529C64.0731 16.8696 64.3804 17.2005 64.5685 17.5996C64.9881 18.6853 65.1755 19.8469 65.1185 21.0095C65.0813 21.4065 65.1364 21.8066 65.2795 22.1787C65.4226 22.5508 65.6498 22.8848 65.9435 23.1544ZM65.1161 12.2166C65.0121 12.4435 64.8632 12.647 64.6785 12.8147C64.2887 13.1797 63.7819 13.3942 63.2485 13.4197H59.4536V9.4048H63.2485C63.5205 9.39 63.7926 9.43118 64.048 9.52578C64.3035 9.62038 64.5367 9.7664 64.7335 9.95479C64.9205 10.1295 65.0667 10.3433 65.1617 10.581C65.2568 10.8186 65.2983 11.0742 65.2835 11.3298V11.4947C65.277 11.7442 65.22 11.9898 65.1161 12.2166Z" fill="#EA2429"/>
<path fill-rule="evenodd" clip-rule="evenodd" d="M83.5431 21.6695C82.9995 22.4253 82.257 23.0155 81.3981 23.3745C80.4748 23.7569 79.4823 23.9441 78.4832 23.9244H78.0982C76.9698 23.9371 75.8556 23.6727 74.8533 23.1544C73.9009 22.6599 73.1162 21.8944 72.5983 20.9545C72.0238 19.9119 71.7389 18.7345 71.7733 17.5446V16.8296C71.7455 15.6404 72.0299 14.4647 72.5983 13.4197C73.1157 12.4794 73.9005 11.7137 74.8533 11.2197C75.8556 10.7015 76.9698 10.4371 78.0982 10.4498H78.4832C79.493 10.4396 80.4912 10.6656 81.3981 11.1097C82.2669 11.5308 83.0075 12.1764 83.5431 12.9797C84.1026 13.8473 84.3899 14.8624 84.368 15.8946V17.8196H75.5132V18.4246C75.498 19.1933 75.7729 19.9394 76.2832 20.5145C76.5406 20.7936 76.8565 21.0123 77.2083 21.1549C77.5601 21.2975 77.9391 21.3606 78.3182 21.3395C78.6496 21.358 78.9814 21.3091 79.2933 21.1957C79.6053 21.0822 79.891 20.9066 80.1331 20.6795C80.3693 20.4211 80.5497 20.1168 80.6633 19.7857C80.7768 19.4545 80.821 19.1035 80.7931 18.7545H84.368C84.414 19.7897 84.1247 20.812 83.5431 21.6695ZM76.2832 13.7497C75.8335 14.3225 75.5483 15.007 75.4582 15.7296H80.5731C80.6088 15.0023 80.3954 14.2844 79.9681 13.6947C79.7286 13.4262 79.4302 13.217 79.0962 13.0834C78.7622 12.9498 78.4017 12.8955 78.0432 12.9247C77.3756 12.9763 76.7499 13.2696 76.2832 13.7497Z" fill="#EA2429"/>
<path fill-rule="evenodd" clip-rule="evenodd" d="M94.0092 23.3934C94.6429 23.0669 95.1854 22.5879 95.5878 21.9995L95.9727 23.6494H98.8877V5.38987H95.2028V12.2097C94.8001 11.6903 94.2946 11.2597 93.7178 10.9447C93.0563 10.6006 92.3182 10.4303 91.5729 10.4498C90.6773 10.4319 89.7966 10.6807 89.0429 11.1647C88.2314 11.6999 87.5991 12.4663 87.228 13.3647C86.7571 14.4961 86.5321 15.7146 86.568 16.9396V17.2146C86.5223 18.4813 86.7669 19.7417 87.283 20.8995C87.6791 21.8302 88.3509 22.6171 89.2079 23.1544C90.0418 23.6401 90.993 23.8874 91.9578 23.8694C92.6705 23.8834 93.3755 23.7198 94.0092 23.3934ZM91.7557 21.1788C91.4516 21.036 91.1826 20.828 90.9679 20.5695C90.4903 19.9185 90.2567 19.1203 90.3079 18.3146V16.2246C90.2492 15.4009 90.4829 14.583 90.9679 13.9147C91.1879 13.6664 91.4592 13.469 91.7631 13.336C92.067 13.203 92.3962 13.1378 92.7278 13.1447C93.0611 13.1252 93.3943 13.1848 93.7002 13.3186C94.006 13.4524 94.2759 13.6567 94.4878 13.9147C94.9652 14.5866 95.1981 15.4019 95.1478 16.2246V18.3146C95.199 19.1203 94.9654 19.9185 94.4878 20.5695C94.2731 20.828 94.0041 21.036 93.6999 21.1788C93.3957 21.3215 93.0638 21.3955 92.7278 21.3955C92.3918 21.3955 92.0599 21.3215 91.7557 21.1788Z" fill="#EA2429"/>
<path fill-rule="evenodd" clip-rule="evenodd" d="M113.407 21.6695C112.864 22.4253 112.121 23.0155 111.262 23.3745C110.339 23.7569 109.347 23.9441 108.347 23.9244H107.962C106.834 23.9371 105.72 23.6727 104.718 23.1544C103.765 22.6599 102.981 21.8944 102.463 20.9545C101.888 19.9119 101.603 18.7345 101.638 17.5446V16.8296C101.61 15.6404 101.894 14.4647 102.463 13.4197C102.98 12.4794 103.765 11.7137 104.718 11.2197C105.72 10.7015 106.834 10.4371 107.962 10.4498H108.347C109.357 10.4396 110.355 10.6656 111.262 11.1097C112.131 11.5308 112.872 12.1764 113.407 12.9797C113.967 13.8473 114.254 14.8624 114.232 15.8946V17.8196H105.378V18.4246C105.362 19.1933 105.637 19.9394 106.148 20.5145C106.405 20.7936 106.721 21.0123 107.073 21.1549C107.424 21.2975 107.803 21.3606 108.182 21.3395C108.514 21.358 108.846 21.3091 109.158 21.1957C109.47 21.0822 109.755 20.9066 109.997 20.6795C110.234 20.4211 110.414 20.1168 110.528 19.7857C110.641 19.4545 110.685 19.1035 110.657 18.7545H114.232C114.278 19.7897 113.989 20.812 113.407 21.6695ZM106.202 13.7497C105.753 14.3225 105.468 15.007 105.378 15.7296H110.492C110.528 15.0023 110.315 14.2844 109.887 13.6947C109.648 13.4262 109.349 13.217 109.015 13.0834C108.681 12.9498 108.321 12.8955 107.962 12.9247C107.29 12.9556 106.657 13.2523 106.202 13.7497Z" fill="#EA2429"/>
<path fill-rule="evenodd" clip-rule="evenodd" d="M136.067 9.78976C135.391 8.66978 134.421 7.75665 133.262 7.14983C132.051 6.54337 130.711 6.2413 129.357 6.26985H122.757V23.6494H129.357C130.715 23.6599 132.056 23.3389 133.262 22.7145C134.421 22.1076 135.391 21.1945 136.067 20.0745C136.796 18.825 137.158 17.3955 137.112 15.9496V13.9147C137.158 12.4688 136.796 11.0393 136.067 9.78976ZM129.357 20.5145H126.717V9.40477H129.357C129.846 9.37835 130.336 9.45804 130.791 9.6384C131.247 9.81877 131.658 10.0955 131.997 10.4498C132.696 11.2758 133.051 12.3393 132.987 13.4197V16.4996C133.051 17.58 132.696 18.6435 131.997 19.4696C131.658 19.8237 131.247 20.1005 130.791 20.2809C130.336 20.4613 129.846 20.541 129.357 20.5145Z" fill="#EA2429"/>
<path fill-rule="evenodd" clip-rule="evenodd" d="M151.246 21.6695C150.703 22.4253 149.96 23.0155 149.102 23.3745C148.178 23.7569 147.186 23.9441 146.187 23.9244H145.802C144.673 23.9371 143.559 23.6727 142.557 23.1544C141.604 22.6599 140.82 21.8944 140.302 20.9545C139.727 19.9119 139.442 18.7345 139.477 17.5446V16.8296C139.449 15.6404 139.733 14.4647 140.302 13.4197C140.819 12.4794 141.604 11.7137 142.557 11.2197C143.559 10.7015 144.673 10.4371 145.802 10.4498H146.187C147.196 10.4396 148.195 10.6656 149.102 11.1097C149.97 11.5308 150.711 12.1764 151.246 12.9797C151.806 13.8473 152.093 14.8624 152.071 15.8946V17.8196H143.217V18.4246C143.201 19.1933 143.476 19.9394 143.987 20.5145C144.244 20.7936 144.56 21.0123 144.912 21.1549C145.264 21.2975 145.643 21.3606 146.022 21.3395C146.353 21.358 146.685 21.3091 146.997 21.1957C147.309 21.0822 147.594 20.9066 147.837 20.6795C148.073 20.4211 148.253 20.1168 148.367 19.7857C148.48 19.4545 148.524 19.1035 148.497 18.7545H152.071C152.064 19.7828 151.779 20.79 151.246 21.6695ZM143.987 13.7497C143.537 14.3225 143.252 15.007 143.162 15.7296H148.277C148.312 15.0023 148.099 14.2844 147.672 13.6947C147.432 13.4262 147.134 13.217 146.8 13.0834C146.466 12.9498 146.105 12.8955 145.747 12.9247C145.074 12.9556 144.441 13.2523 143.987 13.7497Z" fill="#EA2429"/>
<path d="M159.453 21.136C159.148 20.9927 158.88 20.7799 158.671 20.5145C158.224 19.9079 157.974 19.1781 157.956 18.4245V16.1696C157.931 15.3669 158.162 14.5769 158.616 13.9147C158.821 13.6275 159.094 13.3964 159.411 13.2426C159.728 13.0888 160.079 13.0173 160.431 13.0347C160.757 13.0096 161.084 13.0669 161.382 13.2015C161.68 13.336 161.94 13.5435 162.136 13.8047C162.563 14.4153 162.776 15.1503 162.741 15.8946H166.426C166.44 14.8709 166.174 13.863 165.656 12.9797C165.177 12.1696 164.469 11.519 163.621 11.1097C162.773 10.6663 161.828 10.4396 160.871 10.4497H160.486C159.375 10.4368 158.279 10.7015 157.296 11.2197C156.371 11.7321 155.609 12.4945 155.096 13.4197C154.522 14.4622 154.237 15.6397 154.271 16.8296V17.5446C154.271 19.5245 154.821 21.1195 155.921 22.2195C156.513 22.8017 157.22 23.2541 157.996 23.5477C158.773 23.8413 159.602 23.9696 160.431 23.9244H160.816C161.784 23.932 162.742 23.7254 163.621 23.3194C164.466 22.9327 165.176 22.3002 165.656 21.5045C166.187 20.5866 166.454 19.5396 166.426 18.4796H162.906C162.959 19.2515 162.724 20.0157 162.246 20.6245C162.015 20.8701 161.732 21.0615 161.419 21.1851C161.105 21.3087 160.768 21.3614 160.431 21.3395C160.094 21.3489 159.759 21.2792 159.453 21.136Z" fill="#EA2429"/>
<path d="M169.176 5.38987H172.916V8.30479H169.176V5.38987Z" fill="#EA2429"/>
<path d="M169.176 10.6697H172.861V23.6494H169.176V10.6697Z" fill="#EA2429"/>
<path d="M178.766 20.4439C178.628 20.2175 178.563 19.954 178.581 19.6895H178.526V19.4696H175.281V19.9645C175.291 20.7026 175.542 21.4172 175.996 21.9995C176.494 22.6311 177.162 23.108 177.921 23.3745C178.816 23.7171 179.768 23.8851 180.726 23.8695H181.551C182.995 23.9048 184.422 23.5434 185.676 22.8245C186.224 22.4625 186.666 21.9607 186.956 21.371C187.246 20.7813 187.374 20.1249 187.326 19.4696C187.36 19.0525 187.31 18.6327 187.177 18.2357C187.045 17.8387 186.833 17.4726 186.556 17.1596C186.069 16.6147 185.44 16.215 184.741 16.0046C183.842 15.73 182.922 15.5277 181.991 15.3996C181.245 15.2957 180.509 15.1302 179.791 14.9047C179.586 14.8679 179.401 14.7588 179.27 14.5974C179.139 14.4359 179.07 14.2327 179.076 14.0247C179.076 13.6947 179.296 13.4197 179.736 13.1997C180.271 12.9582 180.854 12.8452 181.441 12.8697C182.981 12.8697 183.751 13.4197 183.751 14.4097H186.996V13.8597C186.999 13.1853 186.743 12.5353 186.281 12.0447C185.763 11.4596 185.098 11.023 184.356 10.7798C183.543 10.4914 182.688 10.3426 181.826 10.3398H181.331C180.374 10.3339 179.423 10.5016 178.526 10.8348C177.732 11.0942 177.027 11.5704 176.491 12.2097C175.978 12.8481 175.706 13.6461 175.721 14.4647C175.688 15.286 175.962 16.0901 176.491 16.7196C176.987 17.2531 177.612 17.6507 178.306 17.8746C179.167 18.1509 180.05 18.3533 180.946 18.4796C181.735 18.5718 182.51 18.7564 183.256 19.0296C183.473 19.0835 183.663 19.2125 183.794 19.3937C183.925 19.5749 183.988 19.7966 183.971 20.0195C183.971 20.4595 183.696 20.7895 183.146 21.0095C182.567 21.2347 181.951 21.3467 181.331 21.3395C180.649 21.3723 179.97 21.2402 179.351 20.9545C179.108 20.8486 178.903 20.6703 178.766 20.4439Z" fill="#EA2429"/>
<path fill-rule="evenodd" clip-rule="evenodd" d="M197.335 13.5297C196.836 13.1362 196.21 12.9404 195.575 12.9797C195.16 12.957 194.746 13.0323 194.365 13.1997C194.067 13.3409 193.803 13.5477 193.595 13.8047C193.436 13.9897 193.339 14.2209 193.32 14.4647V14.6847H189.746C189.706 14.5414 189.688 14.3932 189.691 14.2447C189.685 13.5204 189.938 12.818 190.406 12.2647C190.951 11.6478 191.655 11.1914 192.441 10.9448C193.393 10.6024 194.399 10.4347 195.41 10.4498H195.96C197.435 10.3664 198.898 10.7514 200.14 11.5497C200.601 11.8924 200.971 12.3416 201.221 12.8588C201.47 13.3761 201.59 13.9459 201.57 14.5197V20.5145C201.57 20.8445 201.625 21.0645 201.79 21.1745C201.853 21.2436 201.929 21.2988 202.015 21.3367C202.022 21.3401 202.03 21.3435 202.038 21.3466C202.049 21.3509 202.06 21.355 202.071 21.3587C202.092 21.3658 202.113 21.3719 202.135 21.377C202.184 21.3884 202.234 21.3944 202.285 21.3945C202.472 21.3793 202.657 21.3424 202.835 21.2845C203.005 21.2465 203.171 21.1913 203.33 21.1195V23.4294C202.636 23.7979 201.861 23.9869 201.075 23.9794C200.319 24.0377 199.565 23.8443 198.93 23.4294C198.442 23.0312 198.127 22.4597 198.05 21.8345C197.541 22.5074 196.885 23.0553 196.132 23.4366C195.379 23.8178 194.549 24.0223 193.705 24.0344C192.592 24.0679 191.491 23.802 190.516 23.2644C189.691 22.7145 189.251 21.7245 189.251 20.2945C189.209 19.7872 189.281 19.2771 189.462 18.8013C189.643 18.3255 189.927 17.8961 190.296 17.5446C191.1 16.845 192.097 16.4041 193.155 16.2796C194.72 16.0339 196.302 15.9235 197.885 15.9496V15.0697C197.908 14.7887 197.87 14.5062 197.775 14.2408C197.68 13.9754 197.531 13.733 197.335 13.5297ZM194.255 18.3146C193.923 18.4128 193.631 18.6157 193.423 18.8932C193.215 19.1706 193.102 19.5078 193.1 19.8545C193.077 20.0733 193.111 20.2943 193.197 20.4966C193.284 20.6987 193.421 20.8753 193.595 21.0095C194.028 21.2603 194.526 21.3752 195.025 21.3395C195.485 21.3346 195.937 21.2215 196.345 21.0095C196.797 20.7877 197.177 20.445 197.445 20.0195C197.731 19.5769 197.884 19.0615 197.885 18.5346V17.8746C196.658 17.7747 195.423 17.9243 194.255 18.3146Z" fill="#EA2429"/>
<path d="M200.58 6.87484C200.313 7.36204 199.913 7.76276 199.425 8.02982C198.933 8.34074 198.357 8.49425 197.775 8.46981C197.406 8.46041 197.039 8.42366 196.675 8.35981C196.291 8.24984 195.905 8.1397 195.41 7.97481C195.053 7.8368 194.685 7.72647 194.31 7.64482C194.021 7.58115 193.727 7.54433 193.43 7.53483C193.134 7.504 192.837 7.58184 192.594 7.75386C192.352 7.92589 192.18 8.18034 192.11 8.46981H190.461C190.458 7.94977 190.59 7.43795 190.846 6.98484C191.126 6.49325 191.522 6.07782 192.001 5.77486C192.493 5.46392 193.069 5.31044 193.65 5.33488C194.019 5.34426 194.387 5.38102 194.75 5.44487C194.857 5.48037 194.975 5.51587 195.102 5.55321C195.153 5.56791 195.204 5.58289 195.257 5.59826C195.487 5.66491 195.743 5.73906 196.015 5.82987C196.394 5.96208 196.779 6.07225 197.17 6.15986C197.441 6.22346 197.717 6.2603 197.995 6.26985C198.309 6.26367 198.614 6.16829 198.875 5.99486C199.112 5.81526 199.286 5.56479 199.37 5.27988H201.02C200.98 5.83539 200.831 6.3775 200.58 6.87484Z" fill="#EA2429"/>
<path fill-rule="evenodd" clip-rule="evenodd" d="M214.495 23.1544C215.448 22.6604 216.233 21.8948 216.75 20.9545C217.318 19.9095 217.603 18.7338 217.575 17.5446V16.8296C217.603 15.6404 217.318 14.4647 216.75 13.4197C216.232 12.4798 215.447 11.7143 214.495 11.2197C213.493 10.7015 212.378 10.4371 211.25 10.4498H210.865C209.737 10.4436 208.625 10.7077 207.62 11.2197C206.667 11.7137 205.883 12.4794 205.365 13.4197C204.797 14.4647 204.512 15.6404 204.54 16.8296V17.5446C204.512 18.7338 204.797 19.9095 205.365 20.9545C205.883 21.8944 206.668 22.6599 207.62 23.1544C208.622 23.6727 209.737 23.9371 210.865 23.9244H211.25C212.378 23.9305 213.49 23.6665 214.495 23.1544ZM212.137 13.1716C212.488 13.3139 212.804 13.5298 213.065 13.8047C213.62 14.4624 213.897 15.3111 213.835 16.1696V18.2046C213.887 19.0619 213.612 19.9071 213.065 20.5695C212.801 20.8394 212.484 21.052 212.133 21.1939C211.783 21.3359 211.408 21.4041 211.03 21.3945C210.652 21.4104 210.274 21.3449 209.923 21.2026C209.572 21.0603 209.256 20.8444 208.995 20.5695C208.448 19.9071 208.173 19.0619 208.225 18.2046V16.1696C208.173 15.3123 208.448 14.4671 208.995 13.8047C209.259 13.5348 209.577 13.3222 209.927 13.1803C210.277 13.0383 210.652 12.97 211.03 12.9797C211.409 12.9638 211.786 13.0293 212.137 13.1716Z" fill="#EA2429"/>
<path d="M59.9486 35.9142C59.9654 36.2879 59.9058 36.6611 59.7734 37.011C59.641 37.3609 59.4386 37.6801 59.1786 37.9491C58.6088 38.4682 57.859 38.7444 57.0887 38.7191H56.9786C56.6086 38.7458 56.2369 38.6961 55.8869 38.5731C55.5368 38.4501 55.2158 38.2564 54.9437 38.0041C54.6837 37.7351 54.4813 37.4159 54.3489 37.066C54.2165 36.7161 54.1569 36.3429 54.1737 35.9692V35.6942H55.5487V36.0791C55.5456 36.2743 55.5831 36.468 55.6588 36.6479C55.7346 36.8278 55.8469 36.99 55.9887 37.1241C56.3013 37.3731 56.6891 37.5087 57.0887 37.5087C57.4883 37.5087 57.8761 37.3731 58.1886 37.1241C58.3304 36.99 58.4427 36.8278 58.5185 36.6479C58.5942 36.468 58.6317 36.2743 58.6286 36.0791V28.8743H60.0036V35.9142H59.9486Z" fill="#EA2429"/>
<path d="M68.4734 37.5641C68.4046 37.4472 68.3667 37.3147 68.3634 37.1791H68.4184V31.3493H67.0984V35.6392C67.0945 35.9846 67.0013 36.3232 66.8279 36.6219C66.6544 36.9207 66.4065 37.1695 66.1084 37.3441C65.8269 37.5176 65.5041 37.6125 65.1735 37.6191C64.1285 37.6191 63.6335 37.0691 63.6335 35.9692V31.3493H62.3135V36.1891C62.2989 36.5331 62.3548 36.8765 62.4777 37.198C62.6007 37.5196 62.7881 37.8127 63.0285 38.0591C63.2626 38.2814 63.5391 38.4544 63.8415 38.5678C64.1438 38.6812 64.4659 38.7327 64.7885 38.7191C65.2674 38.7274 65.7405 38.6138 66.1634 38.3891C66.5546 38.1728 66.8927 37.8722 67.1534 37.5091C67.144 37.6707 67.1685 37.8325 67.2253 37.984C67.2822 38.1356 67.3701 38.2736 67.4834 38.3891C67.6238 38.5157 67.7897 38.6107 67.97 38.6677C68.1503 38.7246 68.3407 38.7421 68.5284 38.7191C68.8404 38.7042 69.1434 38.6095 69.4083 38.4441V37.4541C69.2195 37.5999 68.9869 37.6774 68.7484 37.6741C68.6464 37.6722 68.5486 37.6331 68.4734 37.5641Z" fill="#EA2429"/>
<path d="M76.5032 31.8442C76.7348 32.0945 76.9128 32.3895 77.0263 32.7111C77.1398 33.0326 77.1864 33.374 77.1632 33.7142V38.5541H75.8432V33.9342C75.8432 32.8342 75.3482 32.2842 74.3033 32.2842C73.9727 32.2909 73.6498 32.3858 73.3683 32.5592C73.0702 32.7338 72.8223 32.9826 72.6488 33.2814C72.4754 33.5802 72.3822 33.9187 72.3783 34.2642V38.5541H71.0583V31.3493H71.9933L72.1583 32.3942C72.4301 32.0081 72.7935 31.6955 73.2158 31.4843C73.6381 31.2731 74.1063 31.17 74.5783 31.1843C75.2745 31.1898 75.9501 31.4214 76.5032 31.8442Z" fill="#EA2429"/>
<path d="M82.5531 31.3493H80.9031V29.0393H80.0781L79.6381 31.3493H78.8131V32.3942H79.5831V36.6291C79.5439 37.1782 79.6997 37.7236 80.0231 38.1691C80.1838 38.3406 80.3808 38.474 80.5996 38.5596C80.8185 38.6453 81.0537 38.6809 81.2881 38.6641C81.7434 38.6756 82.1952 38.5815 82.608 38.3891V37.3991C82.3348 37.5372 82.0341 37.6124 81.7281 37.6191C81.6169 37.6346 81.5037 37.6227 81.3982 37.5843C81.2928 37.546 81.1983 37.4824 81.1231 37.3991C80.9581 37.2891 80.9031 37.0141 80.9031 36.6841V32.3942H82.5531V31.3493Z" fill="#EA2429"/>
<path fill-rule="evenodd" clip-rule="evenodd" d="M89.5379 32.1742C89.8451 32.5164 90.0812 32.9164 90.2323 33.3507C90.3833 33.7851 90.4464 34.2452 90.4179 34.7042V35.1992C90.4515 35.6586 90.3908 36.12 90.2395 36.5551C90.0881 36.9902 89.8494 37.3897 89.5379 37.7291C88.8758 38.3312 88.0129 38.6649 87.118 38.6649C86.223 38.6649 85.3602 38.3312 84.698 37.7291C84.3908 37.3869 84.1547 36.987 84.0037 36.5526C83.8526 36.1182 83.7895 35.6582 83.818 35.1992V34.7042C83.7844 34.2448 83.8451 33.7833 83.9965 33.3482C84.1478 32.9132 84.3865 32.5136 84.698 32.1742C85.0173 31.863 85.3963 31.6197 85.8123 31.459C86.2282 31.2983 86.6723 31.2236 87.118 31.2393C87.5648 31.2119 88.0123 31.2813 88.43 31.4427C88.8476 31.604 89.2255 31.8535 89.5379 32.1742ZM85.633 32.9442C85.2613 33.5142 85.0874 34.1906 85.138 34.8692V35.1442C85.0943 35.8048 85.2681 36.4616 85.633 37.0141C85.808 37.2368 86.0348 37.4134 86.2936 37.5284C86.5524 37.6434 86.8354 37.6934 87.118 37.6741C87.3991 37.6821 87.6784 37.627 87.9354 37.5128C88.1924 37.3986 88.4205 37.2282 88.6029 37.0141C88.9876 36.4686 89.1809 35.8111 89.1529 35.1442V34.8692C89.1966 34.2085 89.0228 33.5517 88.6579 32.9992C88.4641 32.795 88.2315 32.6315 87.9738 32.518C87.7162 32.4046 87.4385 32.3435 87.157 32.3384C86.8755 32.3333 86.5957 32.3842 86.3341 32.4882C86.0725 32.5922 85.8341 32.7472 85.633 32.9442Z" fill="#EA2429"/>
<path d="M97.5127 32.1742C97.2568 31.8473 96.9136 31.5994 96.5227 31.4592C96.0479 31.2869 95.5388 31.2303 95.0378 31.2942H94.9278C94.1731 31.2515 93.4238 31.4437 92.7828 31.8442C92.5382 32.0309 92.341 32.2726 92.2072 32.5497C92.0734 32.8268 92.0068 33.1316 92.0128 33.4392C91.9958 33.6477 92.0211 33.8575 92.0873 34.056C92.1535 34.2545 92.2591 34.4376 92.3978 34.5942C92.6597 34.864 92.9794 35.0708 93.3328 35.1992C93.8035 35.3335 94.2808 35.4436 94.7628 35.5292C95.0562 35.5658 95.3007 35.6269 95.5126 35.6799C95.568 35.6938 95.6212 35.7071 95.6724 35.7192C95.7191 35.7303 95.7641 35.7404 95.8078 35.7492C96.0559 35.7905 96.2858 35.9054 96.4678 36.0791C96.5595 36.1499 96.6325 36.242 96.6804 36.3475C96.7284 36.4529 96.7498 36.5685 96.7427 36.6841C96.7363 36.8379 96.6863 36.9867 96.5987 37.1133C96.5111 37.2398 96.3894 37.3389 96.2477 37.3991C95.9292 37.5801 95.5691 37.6749 95.2028 37.6741C93.8278 37.6741 93.1678 37.2891 93.1678 36.4641V36.2991H91.8478V36.6841C91.8472 37.0582 91.9625 37.4233 92.1779 37.7291C92.4515 38.0742 92.8122 38.3399 93.2228 38.4991C93.7149 38.6846 94.2369 38.7778 94.7628 38.7741H94.9828C95.7794 38.8147 96.5685 38.6031 97.2377 38.1691C97.4947 37.9563 97.6982 37.6863 97.8319 37.3807C97.9657 37.075 98.0259 36.7423 98.0077 36.4091C98.0248 36.2006 97.9995 35.9908 97.9333 35.7923C97.8671 35.5938 97.7615 35.4108 97.6227 35.2542C97.3499 34.9712 97.009 34.7629 96.6327 34.6492C96.1451 34.4939 95.6494 34.3654 95.1478 34.2642C94.6782 34.1802 94.2177 34.0513 93.7728 33.8792C93.6469 33.819 93.5395 33.7259 93.4621 33.6097C93.3846 33.4936 93.34 33.3586 93.3328 33.2192C93.3328 32.6142 93.8828 32.2842 94.9278 32.2842C95.9727 32.2842 96.5227 32.6692 96.5227 33.3292V33.4392H97.8427V33.1642C97.8427 32.8072 97.7269 32.4598 97.5127 32.1742Z" fill="#EA2429"/>
<path fill-rule="evenodd" clip-rule="evenodd" d="M108.237 31.7892C108.471 31.9947 108.656 32.2491 108.779 32.5343C108.903 32.8196 108.962 33.1285 108.952 33.4392V37.1791C108.956 37.3147 108.994 37.4472 109.062 37.5641C109.138 37.6331 109.235 37.6722 109.337 37.6741C109.576 37.6774 109.809 37.5999 109.997 37.4541V38.4441C109.659 38.6251 109.281 38.7195 108.897 38.7191C108.736 38.7325 108.573 38.7099 108.42 38.6528C108.268 38.5957 108.131 38.5057 108.017 38.3891C107.904 38.2626 107.816 38.115 107.759 37.9545C107.703 37.7941 107.678 37.624 107.687 37.4541C107.417 37.8752 107.041 38.2185 106.598 38.45C106.154 38.6814 105.658 38.7932 105.158 38.7741C104.531 38.8197 103.908 38.6445 103.398 38.2791C103.038 37.8648 102.827 37.3427 102.797 36.7949C102.767 36.2472 102.92 35.7051 103.233 35.2542C103.647 34.8764 104.164 34.6279 104.718 34.5392C105.66 34.3635 106.619 34.2898 107.577 34.3192V33.5492C107.596 33.3603 107.565 33.1698 107.488 32.9963C107.411 32.8228 107.29 32.6723 107.137 32.5592C106.774 32.3403 106.35 32.2439 105.928 32.2842C105.508 32.2778 105.093 32.3721 104.718 32.5592C104.585 32.6531 104.477 32.7766 104.4 32.9198C104.324 33.063 104.282 33.222 104.278 33.3842V33.5492H102.958C102.958 33.4998 102.946 33.4392 102.934 33.3725L102.934 33.3714C102.927 33.3305 102.919 33.2869 102.913 33.2426C102.907 33.1989 102.903 33.154 102.903 33.1092C102.9 32.9355 102.933 32.763 102.999 32.6023C103.066 32.4417 103.164 32.296 103.288 32.1742C103.58 31.8627 103.936 31.6186 104.333 31.4593C104.807 31.2786 105.31 31.1854 105.817 31.1843H105.928C107.082 31.2393 107.797 31.4043 108.237 31.7892ZM105.378 35.4192C105.007 35.4502 104.659 35.6053 104.388 35.8592C104.208 36.0964 104.111 36.3864 104.113 36.6841C104.113 37.3441 104.608 37.6741 105.598 37.6741C105.944 37.6605 106.283 37.5663 106.587 37.3991C106.894 37.2207 107.157 36.9765 107.357 36.6841C107.538 36.3458 107.633 35.9679 107.632 35.5842V35.3092C106.879 35.2489 106.121 35.2858 105.378 35.4192Z" fill="#EA2429"/>
<path fill-rule="evenodd" clip-rule="evenodd" d="M117.862 34.9792C117.908 34.0036 117.638 33.0391 117.092 32.2292C116.83 31.8978 116.496 31.6311 116.114 31.4499C115.733 31.2687 115.315 31.1778 114.892 31.1843C114.458 31.1734 114.027 31.2738 113.642 31.4759C113.257 31.6781 112.93 31.9753 112.692 32.3392C112.637 31.9542 112.582 31.6243 112.527 31.3493H111.537V41.139H112.857V37.6741C113.087 38.0125 113.4 38.2862 113.766 38.4691C114.132 38.652 114.539 38.7381 114.947 38.7191C115.354 38.7518 115.763 38.6835 116.137 38.5204C116.511 38.3573 116.839 38.1044 117.092 37.7841C117.631 37.0121 117.901 36.0847 117.862 35.1442V34.9792ZM112.857 34.9792C112.814 34.2733 112.967 33.5693 113.297 32.9442C113.449 32.7239 113.656 32.5471 113.897 32.4313C114.138 32.3155 114.405 32.2648 114.672 32.2842C114.938 32.2712 115.203 32.3247 115.443 32.4399C115.684 32.5552 115.891 32.7285 116.047 32.9442C116.378 33.5693 116.53 34.2733 116.487 34.9792C116.53 35.685 116.378 36.3891 116.047 37.0141C115.896 37.2345 115.689 37.4113 115.448 37.5271C115.206 37.6428 114.939 37.6935 114.672 37.6741C114.406 37.6872 114.141 37.6337 113.901 37.5184C113.661 37.4032 113.453 37.2299 113.297 37.0141C112.967 36.3891 112.814 35.685 112.857 34.9792Z" fill="#EA2429"/>
<path d="M124.572 31.8442C124.947 32.2894 125.143 32.8578 125.122 33.4392L125.067 33.9892H123.912V33.6592C123.924 33.3855 123.847 33.1153 123.692 32.8892C123.551 32.6825 123.362 32.5128 123.142 32.3942C122.938 32.2881 122.712 32.2316 122.482 32.2292C122.274 32.216 122.067 32.2603 121.882 32.3573C121.698 32.4543 121.544 32.6003 121.437 32.7792C121.147 33.1971 121.011 33.7024 121.052 34.2092V38.4991H119.732V31.3493H120.667L120.887 32.3942C120.955 32.1753 121.09 31.983 121.272 31.8442C121.49 31.666 121.73 31.518 121.987 31.4043C122.304 31.287 122.64 31.231 122.977 31.2393C123.27 31.2237 123.564 31.2694 123.838 31.3736C124.113 31.4777 124.363 31.638 124.572 31.8442Z" fill="#EA2429"/>
<path fill-rule="evenodd" clip-rule="evenodd" d="M132.162 32.6142C131.915 32.1771 131.554 31.8157 131.117 31.5693C130.624 31.3577 130.107 31.2099 129.577 31.1293H129.467C128.87 31.1244 128.282 31.2761 127.762 31.5693C127.257 31.8638 126.855 32.3051 126.607 32.8342C126.332 33.4181 126.2 34.0592 126.222 34.7042V34.9792C126.165 35.9396 126.48 36.8851 127.102 37.6191C127.411 37.9477 127.787 38.2061 128.204 38.3769C128.622 38.5477 129.071 38.6269 129.522 38.6091H129.632C130.164 38.617 130.69 38.5042 131.172 38.2791C131.607 38.055 131.97 37.7116 132.217 37.2891C132.483 36.8407 132.617 36.3256 132.602 35.8041H131.337C131.343 36.2643 131.187 36.7121 130.897 37.0691C130.727 37.244 130.521 37.3791 130.292 37.4647C130.064 37.5503 129.82 37.5843 129.577 37.5641C129.299 37.5928 129.018 37.5526 128.759 37.4471C128.5 37.3416 128.271 37.174 128.092 36.9591C127.707 36.4556 127.512 35.8323 127.542 35.1992H132.547V34.2092C132.543 33.655 132.412 33.1091 132.162 32.6142ZM127.597 34.2642C127.615 33.7129 127.829 33.1861 128.202 32.7792C128.377 32.6113 128.584 32.4808 128.811 32.3957C129.038 32.3105 129.28 32.2726 129.522 32.2842C129.755 32.2779 129.987 32.3185 130.205 32.4035C130.422 32.4885 130.62 32.6163 130.787 32.7792C130.955 32.954 131.085 33.1612 131.171 33.3882C131.256 33.6151 131.294 33.8571 131.282 34.0992V34.2642H127.597Z" fill="#EA2429"/>
<path d="M139.917 31.8442C140.148 32.0945 140.326 32.3895 140.44 32.7111C140.553 33.0326 140.6 33.374 140.577 33.7142V38.5541H139.257V33.9342C139.257 32.8342 138.762 32.2842 137.717 32.2842C137.386 32.2909 137.063 32.3858 136.782 32.5592C136.484 32.7338 136.236 32.9826 136.062 33.2814C135.889 33.5802 135.796 33.9187 135.792 34.2642V38.5541H134.472V31.3493H135.407L135.572 32.3942C135.844 32.0081 136.207 31.6955 136.629 31.4843C137.052 31.2731 137.52 31.17 137.992 31.1843C138.69 31.1802 139.368 31.4129 139.917 31.8442Z" fill="#EA2429"/>
<path fill-rule="evenodd" clip-rule="evenodd" d="M147.782 38.5541H148.826V28.3243H147.507V32.1742C147.277 31.8359 146.964 31.5622 146.598 31.3792C146.232 31.1963 145.825 31.1102 145.417 31.1293C145.005 31.1064 144.595 31.1846 144.221 31.3572C143.847 31.5298 143.521 31.7915 143.272 32.1193C142.733 32.8912 142.462 33.8187 142.502 34.7592V34.9242C142.456 35.8998 142.726 36.8642 143.272 37.6741C143.529 37.9931 143.856 38.2484 144.228 38.4201C144.6 38.5918 145.007 38.6753 145.417 38.6641C145.847 38.6857 146.276 38.5957 146.661 38.4031C147.046 38.2103 147.376 37.9213 147.617 37.5641C147.672 37.9491 147.727 38.2791 147.782 38.5541ZM143.767 34.9792C143.724 34.2733 143.876 33.5693 144.207 32.9442C144.366 32.7183 144.582 32.5383 144.833 32.4224C145.084 32.3065 145.361 32.2589 145.637 32.2842C145.903 32.2712 146.168 32.3247 146.408 32.4399C146.648 32.5552 146.855 32.7285 147.012 32.9442C147.342 33.5693 147.495 34.2733 147.452 34.9792C147.452 36.7942 146.792 37.6741 145.582 37.6741C145.315 37.6935 145.047 37.6428 144.806 37.5271C144.565 37.4113 144.358 37.2345 144.207 37.0141C143.876 36.3891 143.724 35.685 143.767 34.9792Z" fill="#EA2429"/>
<path fill-rule="evenodd" clip-rule="evenodd" d="M155.536 31.5693C155.974 31.8157 156.335 32.1771 156.581 32.6142C156.831 33.1091 156.963 33.655 156.966 34.2092V35.1992H151.961C151.932 35.8323 152.126 36.4556 152.511 36.9591C152.69 37.174 152.919 37.3416 153.178 37.4471C153.437 37.5526 153.718 37.5928 153.996 37.5641C154.239 37.5843 154.484 37.5503 154.712 37.4647C154.94 37.3791 155.147 37.244 155.316 37.0691C155.607 36.7121 155.762 36.2643 155.756 35.8041H157.021C157.036 36.3256 156.903 36.8407 156.636 37.2891C156.389 37.7116 156.027 38.055 155.591 38.2791C155.11 38.5042 154.583 38.617 154.051 38.6091H153.996C153.546 38.6269 153.096 38.5477 152.679 38.3769C152.261 38.2061 151.885 37.9477 151.576 37.6191C150.954 36.8851 150.639 35.9396 150.696 34.9792V34.7042C150.675 34.0592 150.806 33.4181 151.081 32.8342C151.329 32.3051 151.732 31.8638 152.236 31.5693C152.757 31.2761 153.344 31.1244 153.941 31.1293H154.051C154.562 31.2171 155.06 31.3648 155.536 31.5693ZM152.621 32.7792C152.249 33.1861 152.034 33.7129 152.016 34.2642H155.701V34.0992C155.713 33.8571 155.675 33.6151 155.59 33.3882C155.505 33.1612 155.374 32.954 155.206 32.7792C155.039 32.6163 154.841 32.4885 154.624 32.4035C154.407 32.3185 154.175 32.2779 153.941 32.2842C153.699 32.2726 153.457 32.3105 153.23 32.3957C153.003 32.4808 152.796 32.6113 152.621 32.7792Z" fill="#EA2429"/>
<path d="M168.737 32.7167C168.633 32.3952 168.464 32.0983 168.241 31.8442C167.768 31.4307 167.164 31.197 166.536 31.1842C166.118 31.1905 165.706 31.2842 165.326 31.4592C164.903 31.6754 164.543 31.9975 164.281 32.3942C164.118 32.0114 163.84 31.689 163.485 31.4721C163.13 31.2551 162.716 31.1545 162.301 31.1842C161.852 31.1718 161.408 31.2769 161.013 31.4891C160.617 31.7014 160.284 32.0134 160.046 32.3942L159.881 31.3492H158.946V38.5541H160.266V34.2642C160.26 33.9214 160.335 33.582 160.486 33.2742C160.626 32.9895 160.833 32.7438 161.091 32.5592C161.332 32.387 161.62 32.2912 161.916 32.2842C162.796 32.2842 163.236 32.8342 163.236 33.9342V38.5541H164.556V34.2642C164.55 33.9214 164.625 33.582 164.776 33.2742C164.915 32.9895 165.123 32.7438 165.381 32.5592C165.622 32.387 165.91 32.2912 166.206 32.2842C167.086 32.2842 167.526 32.8342 167.526 33.9342V38.5541H168.846V33.7142C168.878 33.3777 168.841 33.0383 168.737 32.7167Z" fill="#EA2429"/>
<path fill-rule="evenodd" clip-rule="evenodd" d="M176.436 32.1742C176.743 32.5164 176.979 32.9164 177.13 33.3507C177.281 33.7851 177.344 34.2452 177.316 34.7042V35.1992C177.349 35.6586 177.289 36.12 177.137 36.5551C176.986 36.9902 176.747 37.3897 176.436 37.7291C175.774 38.3312 174.911 38.6649 174.016 38.6649C173.121 38.6649 172.258 38.3312 171.596 37.7291C171.289 37.3869 171.053 36.987 170.902 36.5526C170.751 36.1182 170.687 35.6582 170.716 35.1992V34.7042C170.682 34.2448 170.743 33.7833 170.894 33.3482C171.046 32.9132 171.284 32.5136 171.596 32.1742C171.915 31.863 172.294 31.6197 172.71 31.459C173.126 31.2983 173.57 31.2236 174.016 31.2393C174.463 31.2119 174.91 31.2813 175.328 31.4427C175.746 31.604 176.123 31.8535 176.436 32.1742ZM172.531 32.9442C172.159 33.5142 171.985 34.1906 172.036 34.8692V35.1442C171.992 35.8048 172.166 36.4616 172.531 37.0141C172.706 37.2368 172.933 37.4134 173.192 37.5284C173.45 37.6434 173.733 37.6934 174.016 37.6741C174.297 37.6821 174.576 37.627 174.833 37.5128C175.09 37.3986 175.318 37.2282 175.501 37.0141C175.885 36.4686 176.079 35.8111 176.051 35.1442V34.8692C176.095 34.2085 175.921 33.5517 175.556 32.9992C175.362 32.795 175.129 32.6315 174.872 32.518C174.614 32.4046 174.336 32.3435 174.055 32.3384C173.773 32.3333 173.494 32.3842 173.232 32.4882C172.97 32.5922 172.732 32.7472 172.531 32.9442Z" fill="#EA2429"/>
<path d="M184.411 32.1742C184.155 31.8473 183.812 31.5994 183.421 31.4592C182.946 31.2869 182.437 31.2303 181.936 31.2942H181.826C181.071 31.2515 180.322 31.4437 179.681 31.8442C179.436 32.0309 179.239 32.2726 179.105 32.5497C178.971 32.8268 178.905 33.1316 178.911 33.4392C178.894 33.6477 178.919 33.8575 178.985 34.056C179.051 34.2545 179.157 34.4376 179.296 34.5942C179.558 34.864 179.877 35.0708 180.231 35.1992C180.702 35.3335 181.179 35.4436 181.661 35.5292C181.954 35.5658 182.199 35.6269 182.41 35.6799C182.516 35.7064 182.614 35.7308 182.706 35.7492C182.954 35.7905 183.184 35.9054 183.366 36.0791C183.457 36.1499 183.53 36.242 183.578 36.3475C183.626 36.4529 183.648 36.5685 183.641 36.6841C183.634 36.8379 183.584 36.9867 183.497 37.1133C183.409 37.2398 183.287 37.3389 183.146 37.3991C182.827 37.5801 182.467 37.6749 182.101 37.6741C180.726 37.6741 180.066 37.2891 180.066 36.4641V36.2991H178.746V36.6841C178.745 37.0582 178.86 37.4233 179.076 37.7291C179.349 38.0742 179.71 38.3399 180.121 38.4991C180.613 38.6846 181.135 38.7778 181.661 38.7741H181.881C182.677 38.8147 183.466 38.6031 184.136 38.1691C184.393 37.9563 184.596 37.6863 184.73 37.3807C184.864 37.075 184.924 36.7423 184.906 36.4091C184.923 36.2006 184.897 35.9908 184.831 35.7923C184.765 35.5938 184.659 35.4108 184.521 35.2542C184.248 34.9712 183.907 34.7629 183.531 34.6492C183.043 34.4939 182.547 34.3654 182.046 34.2642C181.57 34.2067 181.107 34.0768 180.671 33.8792C180.545 33.819 180.437 33.7259 180.36 33.6097C180.283 33.4936 180.238 33.3586 180.231 33.2192C180.231 32.6142 180.781 32.2842 181.826 32.2842C182.871 32.2842 183.421 32.6692 183.421 33.3292V33.4392H184.741V33.1642C184.741 32.8072 184.625 32.4598 184.411 32.1742Z" fill="#EA2429"/>
<path d="M199.535 31.8442C199.758 32.0983 199.927 32.3952 200.031 32.7167C200.135 33.0383 200.172 33.3777 200.14 33.7142V38.5541H198.82V33.9342C198.82 32.8342 198.38 32.2842 197.5 32.2842C197.204 32.2912 196.917 32.387 196.675 32.5592C196.418 32.7438 196.21 32.9895 196.07 33.2742C195.919 33.582 195.844 33.9214 195.85 34.2642V38.5541H194.53V33.9342C194.53 32.8342 194.09 32.2842 193.21 32.2842C192.914 32.2912 192.627 32.387 192.386 32.5592C192.128 32.7438 191.92 32.9895 191.781 33.2742C191.63 33.582 191.554 33.9214 191.561 34.2642V38.5541H190.241V31.3492H191.176L191.341 32.3942C191.578 32.0134 191.911 31.7014 192.307 31.4891C192.703 31.2769 193.147 31.1718 193.595 31.1842C194.01 31.1545 194.424 31.2551 194.779 31.4721C195.134 31.689 195.413 32.0114 195.575 32.3942C195.837 31.9975 196.197 31.6754 196.62 31.4592C197 31.2842 197.412 31.1905 197.83 31.1842C198.456 31.2077 199.057 31.44 199.535 31.8442Z" fill="#EA2429"/>
<path fill-rule="evenodd" clip-rule="evenodd" d="M207.942 32.5343C207.818 32.2491 207.633 31.9947 207.4 31.7892C206.905 31.4043 206.19 31.2393 205.09 31.1843H204.98C204.473 31.1854 203.97 31.2786 203.495 31.4593C203.099 31.6186 202.742 31.8627 202.45 32.1742C202.326 32.296 202.228 32.4417 202.162 32.6023C202.096 32.763 202.063 32.9355 202.065 33.1092C202.065 33.1437 202.068 33.1781 202.071 33.212C202.078 33.2673 202.088 33.3214 202.097 33.3718C202.103 33.404 202.109 33.4355 202.113 33.4643C202.117 33.4951 202.12 33.5237 202.12 33.5492H203.44V33.3842C203.445 33.222 203.486 33.063 203.563 32.9198C203.639 32.7766 203.748 32.6531 203.88 32.5592C204.256 32.3721 204.671 32.2778 205.09 32.2842C205.513 32.2439 205.937 32.3403 206.3 32.5592C206.453 32.6723 206.573 32.8228 206.65 32.9963C206.728 33.1698 206.758 33.3603 206.74 33.5492V34.3192C205.782 34.2898 204.823 34.3635 203.88 34.5392C203.326 34.6279 202.81 34.8764 202.395 35.2542C202.083 35.7051 201.93 36.2472 201.959 36.7949C201.989 37.3427 202.201 37.8648 202.56 38.2791C203.071 38.6445 203.694 38.8197 204.32 38.7741C204.82 38.7932 205.317 38.6814 205.76 38.45C206.204 38.2185 206.58 37.8752 206.85 37.4541C206.841 37.624 206.865 37.7941 206.922 37.9545C206.979 38.115 207.066 38.2626 207.18 38.3891C207.289 38.5112 207.426 38.605 207.579 38.6624C207.733 38.7199 207.898 38.7394 208.06 38.7191C208.444 38.7195 208.822 38.6251 209.16 38.4441V37.4541C208.971 37.5999 208.739 37.6774 208.5 37.6741C208.398 37.6722 208.3 37.6331 208.225 37.5641C208.156 37.4472 208.118 37.3147 208.115 37.1791V33.4392C208.125 33.1285 208.066 32.8196 207.942 32.5343ZM203.495 35.8592C203.766 35.6053 204.115 35.4502 204.485 35.4192C205.229 35.2877 205.987 35.2507 206.74 35.3092V35.5842C206.741 35.9679 206.646 36.3458 206.465 36.6841C206.265 36.9765 206.002 37.2207 205.695 37.3991C205.391 37.5663 205.052 37.6605 204.705 37.6741C203.715 37.6741 203.22 37.3441 203.22 36.6841C203.219 36.3864 203.315 36.0964 203.495 35.8592Z" fill="#EA2429"/>
<path d="M212.02 29.6443H210.645V28.4343H212.02V29.6443Z" fill="#EA2429"/>
<path d="M211.965 38.5541H210.645V31.3493H211.965V38.5541Z" fill="#EA2429"/>
<path d="M219.5 32.1742C219.244 31.8473 218.901 31.5994 218.51 31.4592C218.035 31.2869 217.526 31.2303 217.025 31.2942H216.915C216.16 31.2515 215.411 31.4437 214.77 31.8442C214.525 32.0309 214.328 32.2726 214.194 32.5497C214.061 32.8268 213.994 33.1316 214 33.4392C213.983 33.6477 214.008 33.8575 214.074 34.056C214.141 34.2545 214.246 34.4376 214.385 34.5942C214.647 34.864 214.967 35.0708 215.32 35.1992C215.791 35.3335 216.268 35.4436 216.75 35.5292C217.19 35.5841 217.52 35.6941 217.795 35.7492C218.043 35.7905 218.273 35.9054 218.455 36.0791C218.547 36.1499 218.62 36.242 218.668 36.3475C218.715 36.4529 218.737 36.5685 218.73 36.6841C218.723 36.8379 218.673 36.9867 218.586 37.1133C218.498 37.2398 218.377 37.3389 218.235 37.3991C217.916 37.5801 217.556 37.6749 217.19 37.6741C215.815 37.6741 215.155 37.2891 215.155 36.4641V36.2991H213.835V36.6841C213.808 37.0618 213.926 37.4356 214.165 37.7291C214.439 38.0742 214.799 38.3399 215.21 38.4991C215.702 38.6846 216.224 38.7778 216.75 38.7741H216.97C217.766 38.8147 218.556 38.6031 219.225 38.1691C219.482 37.9563 219.685 37.6863 219.819 37.3807C219.953 37.075 220.013 36.7423 219.995 36.4091C220.012 36.2006 219.987 35.9908 219.92 35.7923C219.854 35.5938 219.749 35.4108 219.61 35.2542C219.337 34.9712 218.996 34.7629 218.62 34.6492C218.132 34.4939 217.637 34.3654 217.135 34.2642C216.665 34.1802 216.205 34.0513 215.76 33.8792C215.634 33.819 215.527 33.7259 215.449 33.6097C215.372 33.4936 215.327 33.3586 215.32 33.2192C215.32 32.6142 215.87 32.2842 216.915 32.2842C217.96 32.2842 218.51 32.6692 218.51 33.3292V33.4392H219.83V33.1642C219.83 32.8072 219.714 32.4598 219.5 32.1742Z" fill="#EA2429"/>
</svg>
